<?xml version="1.0" standalone="no"?><!DOCTYPE svg PUBLIC "-//W3C//DTD SVG 1.1//EN" "http://www.w3.org/Graphics/SVG/1.1/DTD/svg11.dtd"><svg t="1618989626693" class="icon" viewBox="0 0 1024 1024" version="1.1" xmlns="http://www.w3.org/2000/svg" p-id="3736" xmlns:xlink="http://www.w3.org/1999/xlink" width="200" height="200"><defs><style type="text/css"></style></defs><path d="M661.3504 738.679467l-53.828267-125.576534a17.0496 17.0496 0 0 0-15.684266-10.359466H427.861333a17.066667 17.066667 0 0 0-15.9744 11.093333l-47.616 127.010133h-120.558933l37.922133-418.986666h462.865067l35.908267 416.8192h-119.04z m115.797333-435.370667a17.066667 17.066667 0 0 0-16.9984-15.598933H529.066667v-51.985067a17.066667 17.066667 0 1 0-34.133334 0v51.985067H266.018133a17.066667 17.066667 0 0 0-16.9984 15.530666L208.042667 756.394667a17.083733 17.083733 0 0 0 16.9984 18.602666h151.04c7.1168 0 13.482667-4.420267 15.991466-11.0592l47.633067-127.044266h140.9024l53.828267 125.610666a17.032533 17.032533 0 0 0 15.701333 10.325334h148.855467a17.066667 17.066667 0 0 0 17.015466-18.5344l-38.843733-450.9696z" p-id="3737" fill="#dc10ef"></path><path d="M473.173333 454.587733h-54.493866v-54.493866a17.066667 17.066667 0 1 0-34.133334 0v54.493866h-54.510933a17.066667 17.066667 0 1 0 0 34.133334h54.510933v54.493866a17.066667 17.066667 0 1 0 34.133334 0v-54.493866h54.493866a17.066667 17.066667 0 1 0 0-34.133334M633.088 515.9424a43.861333 43.861333 0 0 1-43.8272-43.8272 43.861333 43.861333 0 0 1 43.8272-43.8272 43.861333 43.861333 0 0 1 43.8272 43.8272 43.861333 43.861333 0 0 1-43.8272 43.8272m0-121.787733a78.045867 78.045867 0 0 0-77.960533 77.960533 78.062933 78.062933 0 0 0 77.960533 77.960533 78.062933 78.062933 0 0 0 77.960533-77.960533 78.045867 78.045867 0 0 0-77.960533-77.960533" p-id="3738" fill="#dc10ef"></path></svg>